<?xml version="1.0" standalone="no"?>
<!DOCTYPE svg PUBLIC "-//W3C//DTD SVG 20010904//EN"
 "http://www.w3.org/TR/2001/REC-SVG-20010904/DTD/svg10.dtd">
<svg version="1.0" xmlns="http://www.w3.org/2000/svg"
  viewBox="0 0 100.000000 100.000000"
 preserveAspectRatio="xMidYMid meet">
<metadata>
Created by potrace 1.10, written by Peter Selinger 2001-2011
</metadata>
<g transform="translate(0.000000,100.000000) scale(0.100000,-0.100000)"
>
<path d="M380 944 c-174 -47 -282 -192 -297 -399 -21 -297 149 -505 414 -505
120 0 246 50 310 124 151 175 151 497 0 672 -89 102 -274 149 -427 108z m190
-25 c87 -14 159 -48 210 -100 53 -55 78 -104 96 -188 39 -184 -10 -385 -114
-471 -145 -119 -393 -115 -535 9 -98 86 -143 295 -101 471 34 146 132 244 276
275 79 17 89 17 168 4z" fill="" stroke=""/>
<path d="M392 804 c-61 -30 -96 -68 -131 -144 -23 -48 -26 -68 -26 -160 0 -95
3 -111 29 -168 33 -70 96 -134 153 -153 19 -6 66 -9 103 -7 83 4 137 37 187
112 46 67 56 114 51 241 -4 118 -17 156 -75 225 -65 78 -194 102 -291 54z
m181 -15 c53 -14 110 -69 138 -132 20 -44 23 -68 23 -157 0 -89 -3 -113 -23
-158 -85 -189 -337 -189 -422 0 -20 45 -24 69 -24 158 0 93 3 112 26 161 53
111 163 162 282 128z" fill="" stroke=""/>
</g>
</svg>
