<?xml version="1.0" standalone="no"?>
<!DOCTYPE svg PUBLIC "-//W3C//DTD SVG 20010904//EN"
 "http://www.w3.org/TR/2001/REC-SVG-20010904/DTD/svg10.dtd">
<svg version="1.0" xmlns="http://www.w3.org/2000/svg"
  viewBox="0 0 100.000000 100.000000"
 preserveAspectRatio="xMidYMid meet">
<metadata>
Created by potrace 1.10, written by Peter Selinger 2001-2011
</metadata>
<g transform="translate(0.000000,100.000000) scale(0.100000,-0.100000)"
>
<path d="M105 930 c-4 -7 54 -103 129 -216 75 -112 136 -208 136 -214 0 -6
-62 -102 -137 -215 -92 -139 -133 -209 -126 -216 6 -6 49 -9 104 -7 l94 3 95
137 c52 76 97 138 100 137 3 0 48 -61 100 -137 l96 -137 93 -3 c55 -2 98 1
104 7 7 7 -34 77 -126 216 -75 113 -137 209 -137 215 0 6 62 102 137 215 92
139 133 209 126 216 -6 6 -49 9 -104 7 l-93 -3 -96 -137 c-52 -76 -97 -137
-100 -137 -3 0 -48 61 -100 137 l-96 137 -96 3 c-63 2 -99 -1 -103 -8z m280
-180 c56 -80 108 -145 115 -145 7 0 59 65 115 145 l101 145 63 3 64 3 -18 -28
c-10 -15 -70 -106 -133 -200 l-115 -173 115 -172 c63 -95 123 -186 133 -201
l18 -28 -64 3 -63 3 -101 145 c-56 80 -108 145 -115 145 -7 0 -59 -65 -115
-145 l-101 -145 -63 -3 -64 -3 18 28 c10 15 70 106 133 201 l115 172 -115 173
c-63 94 -123 185 -133 200 l-18 28 64 -3 63 -3 101 -145z" fill="" stroke=""/>
</g>
</svg>
